<?xml version="1.0" standalone="no"?>
<!DOCTYPE svg PUBLIC "-//W3C//DTD SVG 20010904//EN"
 "http://www.w3.org/TR/2001/REC-SVG-20010904/DTD/svg10.dtd">
<svg version="1.0" xmlns="http://www.w3.org/2000/svg"
 width="512.000000pt" height="512.000000pt" viewBox="0 0 512.000000 512.000000"
 preserveAspectRatio="xMidYMid meet">
<metadata>
Created by potrace 1.16, written by Peter Selinger 2001-2019
</metadata>
<g transform="translate(0.000000,512.000000) scale(0.100000,-0.100000)"
fill="#000000" stroke="none">
<path d="M4810 5106 c-90 -20 -197 -60 -315 -118 -205 -102 -243 -133 -631
-519 l-360 -359 -1523 0 c-1384 0 -1526 -1 -1557 -16 -92 -44 -111 -175 -36
-247 25 -24 262 -120 1826 -737 l208 -82 -608 -609 -609 -609 -583 0 c-383 0
-590 -4 -603 -10 -27 -15 -26 -75 1 -92 11 -7 237 -98 502 -203 475 -188 483
-191 492 -223 8 -28 5 -36 -27 -71 -100 -111 -33 -273 113 -273 51 0 83 14
130 58 23 21 29 23 57 12 30 -11 38 -30 218 -492 111 -285 195 -488 207 -498
26 -23 51 -23 71 0 15 17 17 73 17 593 l0 574 619 619 c340 340 621 614 624
610 3 -5 179 -454 391 -999 213 -545 394 -1001 404 -1014 35 -48 70 -66 127
-66 58 0 91 18 129 69 21 27 21 30 24 1564 l2 1536 359 361 c381 382 408 414
509 612 27 54 67 145 87 203 32 89 38 121 42 210 4 96 2 108 -19 144 -13 22
-40 48 -61 59 -49 25 -143 30 -227 13z"/>
</g>
</svg>
