<?xml version="1.0" standalone="no"?>
<!DOCTYPE svg PUBLIC "-//W3C//DTD SVG 20010904//EN"
 "http://www.w3.org/TR/2001/REC-SVG-20010904/DTD/svg10.dtd">
<svg version="1.0" xmlns="http://www.w3.org/2000/svg"
 width="512.000000pt" height="512.000000pt" viewBox="0 0 512.000000 512.000000"
 preserveAspectRatio="xMidYMid meet">
<metadata>
Created by potrace 1.16, written by Peter Selinger 2001-2019
</metadata>
<g transform="translate(0.000000,512.000000) scale(0.100000,-0.100000)"
fill="#000000" stroke="none">
<path d="M845 4365 c-204 -44 -367 -209 -411 -414 -20 -96 -20 -747 0 -796 26
-62 42 -65 358 -64 235 0 277 3 249 13 -45 16 -71 50 -71 93 0 47 66 307 91
355 31 61 86 115 147 145 l57 28 415 0 415 0 57 -27 c66 -31 128 -91 160 -156
21 -42 23 -64 26 -207 3 -153 2 -162 -19 -189 -12 -16 -36 -34 -53 -42 -27
-11 13 -13 294 -13 281 0 321 2 294 13 -17 8 -41 26 -53 42 -21 27 -22 36 -19
189 3 143 5 165 26 207 32 65 94 125 160 156 l57 27 415 0 415 0 57 -28 c61
-30 116 -84 147 -145 25 -48 91 -308 91 -355 0 -43 -26 -77 -71 -93 -28 -10
14 -13 249 -13 316 -1 332 2 358 64 20 49 20 700 0 796 -44 208 -207 371 -415
415 -95 20 -3334 19 -3426 -1z"/>
<path d="M362 2855 c-90 -31 -141 -63 -208 -129 -67 -67 -98 -119 -129 -210
l-25 -75 0 -814 0 -815 25 -30 c32 -38 83 -49 129 -27 57 27 66 60 66 249 l0
166 2340 0 2340 0 0 -166 c0 -189 9 -222 66 -249 46 -22 97 -11 129 27 l25 30
0 815 0 814 -25 75 c-31 91 -62 143 -129 210 -67 67 -119 98 -210 129 l-75 25
-2123 0 -2123 -1 -73 -24z m4538 -1360 l0 -105 -2340 0 -2340 0 0 105 0 105
2340 0 2340 0 0 -105z"/>
</g>
</svg>
