<?xml version="1.0" standalone="no"?>
<!DOCTYPE svg PUBLIC "-//W3C//DTD SVG 20010904//EN"
 "http://www.w3.org/TR/2001/REC-SVG-20010904/DTD/svg10.dtd">
<svg version="1.0" xmlns="http://www.w3.org/2000/svg"
 width="512.000000pt" height="512.000000pt" viewBox="0 0 512.000000 512.000000"
 preserveAspectRatio="xMidYMid meet">
<metadata>
Created by potrace 1.16, written by Peter Selinger 2001-2019
</metadata>
<g transform="translate(0.000000,512.000000) scale(0.100000,-0.100000)"
fill="#000000" stroke="none">
<path d="M1802 4875 c-175 -38 -304 -149 -364 -313 -19 -50 -22 -85 -26 -274
l-4 -218 141 0 141 0 0 176 c0 203 8 242 62 296 69 69 60 68 808 68 748 0 739
1 808 -68 54 -54 62 -93 62 -296 l0 -176 141 0 141 0 -4 218 c-4 198 -6 222
-28 277 -65 169 -187 272 -367 310 -97 21 -1416 20 -1511 0z"/>
<path d="M250 3940 c-105 -18 -185 -73 -225 -153 l-25 -53 2 -945 3 -944 28
-56 c40 -81 98 -143 169 -178 l61 -31 749 0 748 0 0 214 0 215 26 20 c26 21
33 21 774 21 741 0 748 0 774 -21 l26 -20 0 -215 0 -214 748 0 749 0 61 31
c71 35 129 97 169 178 l28 56 3 944 2 945 -26 54 c-29 59 -88 109 -164 139
-43 17 -164 18 -2340 19 -1262 1 -2315 -2 -2340 -6z"/>
<path d="M1950 1485 l0 -375 610 0 610 0 0 375 0 375 -610 0 -610 0 0 -375z"/>
<path d="M2 1022 l3 -527 33 -64 c44 -84 116 -154 187 -180 l56 -21 2279 0
2279 0 56 21 c71 26 143 96 187 180 l33 64 3 527 3 528 -68 -52 c-37 -28 -93
-63 -123 -77 l-55 -26 -757 -3 -758 -2 0 -203 c0 -225 -3 -237 -66 -263 -49
-21 -1419 -21 -1468 0 -63 26 -66 38 -66 263 l0 203 -758 2 -757 3 -55 26
c-30 14 -86 49 -123 77 l-68 52 3 -528z"/>
</g>
</svg>
